<svg height="597pt" viewBox="-128 -18 597 597.33331" width="597pt" xmlns="http://www.w3.org/2000/svg"><path d="m16.832031 430c36.691407 78.320312 103.261719 130 146 130 42.742188 0 109.3125-51.679688 146.003907-130zm0 0"/><path d="m320.34375 401.191406c1-3.003906 2.097656-6 2.996094-9 1.261718-4.230468 2.253906-8.441406 3.261718-12.660156.660157-2.765625 1.433594-5.523438 2.003907-8.273438.925781-4.65625 1.558593-9.289062 2.175781-13.917968.304688-2.28125.761719-4.570313 1.003906-6.839844.691406-6.8125 1.042969-13.65625 1.046875-20.5 0-7.710938-.304687-15.296875-.808593-22.777344-.152344-2.382812-.421876-4.691406-.621094-7.003906-.308594-3.4375-.71875-6.8125-1.128906-10.179688h-334.890626c-.402343 3.351563-.8125 6.699219-1.109374 10.121094-.210938 2.371094-.476563 4.699219-.628907 7.101563-.503906 7.449219-.8125 15.027343-.8125 22.738281.015625 6.84375.382813 13.691406 1.089844 20.5.230469 2.277344.695313 4.585938 1 6.878906.621094 4.621094 1.242187 9.242188 2.167969 13.890625.554687 2.75 1.335937 5.523438 2.003906 8.292969 1 4.207031 2 8.40625 3.25 12.628906.890625 3 2 5.996094 3 9 1 2.996094 2 5.871094 3.140625 8.800782h308.710937c1.105469-2.929688 2.15625-5.859376 3.148438-8.800782zm0 0"/><path d="m152.832031 0h20v180h-20zm0 0"/><path d="m49.40625 0h-36.574219v103.40625l57.339844 24.601562c3.371094 1.449219 5.675781 4.625 6.011719 8.273438.335937 3.648438-1.351563 7.191406-4.398438 9.226562-37.730468 25.191407-62.824218 68.203126-73.332031 124.492188h328.75c-10.507813-56.308594-35.589844-99.3125-73.320313-124.492188-3.046874-2.035156-4.734374-5.578124-4.398437-9.226562s2.640625-6.824219 6.011719-8.273438l57.335937-24.601562v-103.40625h-36.570312l-83.429688 64.886719v125.113281c0 5.523438-4.476562 10-10 10h-40c-5.519531 0-10-4.476562-10-10v-125.113281zm0 0"/></svg>