<?xml version="1.0" encoding="iso-8859-1"?>
<!-- Generator: Adobe Illustrator 19.0.0, SVG Export Plug-In . SVG Version: 6.00 Build 0)  -->
<svg version="1.1" id="Capa_1" xmlns="http://www.w3.org/2000/svg" xmlns:xlink="http://www.w3.org/1999/xlink" x="0px" y="0px"
	 viewBox="0 0 487.586 487.586" style="enable-background:new 0 0 487.586 487.586;" xml:space="preserve">
<g>
	<g>
		<circle cx="82.573" cy="294.182" r="60.937"/>
		<circle cx="243.771" cy="294.182" r="60.937"/>
		<circle cx="404.948" cy="294.182" r="60.937"/>
		<path d="M404.948,361.267c-39.518,0-72.435,26.661-80.567,62.404c-8.111-35.635-41.049-62.404-80.61-62.404
			c-39.539,0-72.478,26.661-80.567,62.404c-8.132-35.635-41.071-62.404-80.61-62.404C36.972,361.267,0,396.816,0,440.669v44.091
			h487.586v-44.091C487.586,396.816,450.592,361.267,404.948,361.267L404.948,361.267z"/>
		<path d="M325.719,115.814c-33.629,0-60.873,27.309-60.873,60.937s27.287,60.959,60.873,60.959
			c33.737,0,60.981-27.33,60.981-60.959S359.456,115.814,325.719,115.814z"/>
		<circle cx="161.781" cy="176.773" r="60.959"/>
		<circle cx="243.793" cy="63.763" r="60.937"/>
	</g>
	<g>
	</g>
	<g>
	</g>
	<g>
	</g>
	<g>
	</g>
	<g>
	</g>
	<g>
	</g>
	<g>
	</g>
	<g>
	</g>
	<g>
	</g>
	<g>
	</g>
	<g>
	</g>
	<g>
	</g>
	<g>
	</g>
	<g>
	</g>
	<g>
	</g>
</g>
<g>
</g>
<g>
</g>
<g>
</g>
<g>
</g>
<g>
</g>
<g>
</g>
<g>
</g>
<g>
</g>
<g>
</g>
<g>
</g>
<g>
</g>
<g>
</g>
<g>
</g>
<g>
</g>
<g>
</g>
</svg>
