<?xml version="1.0" encoding="iso-8859-1"?>
<!-- Generator: Adobe Illustrator 16.0.0, SVG Export Plug-In . SVG Version: 6.00 Build 0)  -->
<!DOCTYPE svg PUBLIC "-//W3C//DTD SVG 1.1//EN" "http://www.w3.org/Graphics/SVG/1.1/DTD/svg11.dtd">
<svg version="1.1" id="Capa_1" xmlns="http://www.w3.org/2000/svg" xmlns:xlink="http://www.w3.org/1999/xlink" x="0px" y="0px"
	 width="490.228px" height="490.228px" viewBox="0 0 490.228 490.228" style="enable-background:new 0 0 490.228 490.228;"
	 xml:space="preserve">
<g>
	<g>
		<path d="M374.233,118.142c18.002,0,35.098-9.415,44.754-24.604c9.795-15.405,10.889-35.354,2.838-51.74
			c-7.873-16.022-23.727-27.267-41.471-29.308c-18.021-2.073-36.193,5.396-47.527,19.56c-11.397,14.243-14.658,33.888-8.475,51.056
			c6.026,16.732,20.512,29.638,37.84,33.663C366.135,117.685,370.184,118.142,374.233,118.142z"/>
		<path d="M472.698,232.688c0.846-7.918,1.041-15.859,1.164-23.814c-0.225-7.1-0.332-14.292-1.461-21.322
			c-1.371-10.95-3.953-21.907-8.098-32.151l-1.652-4.068c-1.922-4.03-3.945-7.943-6.125-11.84
			c-4.609-7.5-9.953-14.393-16.252-20.554c-2.07-1.907-4.084-3.806-6.209-5.466c-2.063-1.742-4.224-3.234-6.287-4.727
			c-2.676-1.743-5.352-3.469-8.156-5c-14.299,15.646-36.162,22.886-56.973,18.79c-12.84-2.528-24.676-9.273-33.465-18.96
			c-0.746,0.402-1.496,0.818-2.248,1.268c-2.066,1.147-4.115,2.521-6.244,3.905c-2.064,1.493-4.225,2.983-6.289,4.724
			c-2.127,1.659-4.141,3.558-6.213,5.464c-6.308,6.156-11.656,13.052-16.265,20.555c-2.186,3.895-4.207,7.81-6.129,11.842
			l-1.651,4.07c-4.146,10.246-6.722,21.203-8.095,32.154c-1.129,7.029-1.225,14.222-1.455,21.32
			c0.101,6.311,0.318,12.578,0.724,18.876c0.282,4.454,0.875,8.892,1.362,13.328c0.445,3.933,2.341,7.438,5.132,9.959
			c-0.326,0.208-0.554,0.349-0.593,0.364c-2.793,0.462-5.955-0.546-8.573-1.437c-2.927-0.993-5.755-2.277-8.5-3.686
			c-5.519-2.83-10.8-6.167-15.896-9.692c-2.555-1.767-5.059-3.605-7.504-5.52c-2.383-1.865-4.654-3.863-7.178-5.541
			c-4.514-3-9.592-5.159-14.945-6.073c-10.525-1.795-20.539,1.629-29.389,7.184c-8.455,5.308-15.676,12.421-21.488,20.515
			c-12.885,17.938-18.279,39.616-19.818,61.376c-0.391,5.522-0.553,11.06-0.568,16.596c-0.008,2.495-0.248,5.131,0.598,7.522
			c0.723,2.042,2.086,3.838,3.846,5.099c-5.979,11.255-5.506,24.918-4.693,37.277c0.857,13.068,2.773,26.048,3.959,39.088
			c0.555,6.1,0.984,12.24,0.426,18.357c-0.473,5.183-1.578,10.811-4.674,15.123c-3.004,4.186-7.822,6.146-12.846,6.492
			c-2.998,0.207-6.023-0.076-8.98-0.579c-1.486-0.252-2.963-0.563-4.428-0.919c-1.307-0.315-2.709-0.958-4.059-0.98
			c0-2.204,0.658-5.201-1.197-6.842c-1.762-1.559-4.111-2.271-6.314-2.942c-5.408-1.646-10.971-2.696-16.51-3.787
			c-5.793-5.478-11.574-10.968-17.35-16.465c-2.395-2.278-4.857-5.008-8.09-6.062c-1.666-0.544-3.467-0.534-5.203-0.546
			c-2.02-0.013-4.041,0.069-6.061,0.069H36.471c-2.213,0-4.625-0.268-6.645,0.838c-2.188,1.199-3.34,3.893-4.801,5.81
			c-3.334,4.375-7.256,8.45-9.963,13.266c-3.914,0.812-8.178,1.471-11.654,3.575c-1.535,0.929-2.732,2.225-3.154,4.005
			c-0.447,1.895-0.168,3.859-0.168,5.782v9.427c0,1.071-0.158,2.151,0.01,3.217c0.189,1.212,0.957,2.243,1.73,3.157
			c1.475,1.747,3.352,3.981,5.77,4.25c0.895,0.1,2.057-0.212,2.902,0.083c0.34,0.118,0.379,0.592,0.484,0.876
			c0.223,0.595,0.559,1.153,0.883,1.696c1.283,2.141,3.115,3.926,5.285,5.159c4.045,2.301,9.016,2.514,13.246,0.575
			c2.127-0.975,4.025-2.462,5.439-4.329c0.713-0.939,1.299-1.972,1.764-3.056c0.137-0.316,0.244-0.936,0.646-0.998
			c0.389-0.062,0.779,0.027,1.17,0.027h43.15c0.242,0,0.615-0.122,0.814,0.078c0.32,0.318,0.455,1.03,0.654,1.438
			c0.521,1.068,1.17,2.074,1.936,2.984c1.404,1.669,3.191,3.011,5.18,3.907c4.111,1.853,8.979,1.673,12.93-0.506
			c1.629-0.896,3.084-2.106,4.266-3.542c0.621-0.755,1.168-1.57,1.627-2.435c0.447-0.842,0.654-1.812,1.104-2.638
			c0.4-0.736,1.271-1.143,1.891-1.664c0.85-0.718,1.627-1.61,2.309-2.487c0.68-0.871,1.174-1.77,1.252-2.889
			c0.086-1.246-0.018-2.493-0.018-3.74c10.135,2.804,22.941,4.889,31.508-2.867c7.557-6.841,8.68-18.01,8.768-27.582
			c0.121-13.027-1.865-26.022-3.295-38.942c-0.725-6.549-1.363-13.112-1.621-19.697c-0.223-5.64-0.225-11.339,0.77-16.912
			c0.672-3.767,1.816-7.489,3.746-10.81c-0.061-0.176-0.115-0.353-0.174-0.529c4.053,0.633,8.178-1.345,10.359-4.791
			c1.203-1.899,1.494-3.908,1.684-6.104c0.248-2.849,0.523-5.696,0.848-8.537c1.256-10.984,3.262-21.961,7.176-32.336
			c-0.584,10.792-1.166,21.584-1.752,32.375c-0.281,5.165-0.867,10.413-0.418,15.58c0.438,5.023,1.801,9.958,4.096,14.452
			l6.027,116.382c0.348,6.287,5.814,11.498,12.119,11.498c6.322,0,11.795-5.227,12.102-11.539l4.43-91.575l4.744,91.616
			c0.346,6.287,5.813,11.498,12.117,11.498c6.322,0,11.795-5.227,12.102-11.538l5.574-116.264c3.447-6.221,5.25-12.917,4.838-20.543
			l-3.383-61.957c10.391,4.152,22.033,7.875,33.342,5.913c5.119-0.889,10.002-3.116,13.619-6.904
			c3.527-3.691,6.597-8.714,4.515-13.903c4.651-2.768,7.76-7.854,7.709-13.657l-0.006-0.755c-0.033-3.747-0.183-7.511-0.046-11.255
			c0.205-5.521,0.537-11,0.998-16.505c0.748-5.627,1.347-11.398,2.865-16.884c1.76-7.738,4.334-15.48,8.088-22.493l1.353-2.575
			l1.502-2.425c0.936-1.661,2.096-3.097,3.129-4.609c0.086-0.111,0.174-0.218,0.26-0.328l-12.238,85.554
			c-2.049,14.847,1.324,30.144,9.666,42.62l8.111,171.021c0.467,9.21,8.012,16.897,17.23,17.452
			c9.143,0.552,17.524-6.001,19.164-15.021c0.147-0.819,0.241-1.649,0.278-2.481l5.828-129.984l6.057,130.017
			c0.462,9.21,7.998,16.906,17.218,17.468c9.143,0.559,17.53-5.983,19.178-15.005c0.148-0.818,0.242-1.647,0.279-2.479
			l7.772-170.162c5.461-7.889,9.076-17.066,10.355-26.85c2.467,3.507,7.391,4.513,11.022,2.225c1.636-1.031,2.877-2.64,3.451-4.486
			c0.324-1.041,0.324-2.059,0.387-3.133c0.08-1.364,0.396-2.711,0.933-3.968c6.373,2.256,13.602,0.104,17.719-5.256
			c3.186,2.155,5.285,5.802,5.285,9.929V468.83c0,4.45,3.715,8.166,8.164,8.166c4.451,0,8.166-3.715,8.166-8.166V258.86
			C490.227,247.065,482.975,236.936,472.698,232.688z M47.557,439.286H28.186c-1.461,0-3.211,0.323-4.564-0.375
			c-2.283-1.177,0.887-4.555,1.713-5.667c2.033-2.729,4.057-5.487,6.166-8.155c0.998-1.264,2.215-2.164,3.859-2.315
			c1.725-0.16,3.492-0.028,5.223-0.028h4.592c0.637,0,1.414-0.173,2.033-0.068c0.51,0.088,0.35,0.812,0.35,1.162v13.073
			c0,0.499-0.037,0.999,0.008,1.496C47.589,438.667,47.727,439.048,47.557,439.286z M82.655,438.868
			c-0.504,0.619-1.52,0.418-2.211,0.418c-1.449,0.001-2.896,0.001-4.346,0.001c-2.896,0-5.793,0.001-8.689,0.001
			c-5.924,0-11.85-0.001-17.773-0.001v-14.934c0-0.442-0.119-0.891-0.029-1.331c0.123-0.617,1.1-0.405,1.527-0.34
			c1.797,0.277,3.729,0.081,5.541,0.052c3.496-0.055,7.623-0.735,10.813,1.021c1.51,0.831,2.748,2.046,4.004,3.207
			c1.543,1.427,3.066,2.874,4.592,4.318c1.461,1.383,2.938,2.75,4.387,4.143C81.061,435.994,83.52,437.806,82.655,438.868z
			 M435.278,249.289c-0.078-0.778-0.164-1.554-0.275-2.335l-12.119-84.695c0.933,1.323,1.931,2.614,2.755,4.078l1.502,2.426
			l1.354,2.577c3.752,7.013,6.334,14.754,8.092,22.494c1.521,5.487,2.113,11.254,2.871,16.882
			c0.595,7.159,1.093,14.298,1.008,21.487c-0.032,3.991-0.053,6.272-0.053,6.272l-0.008,0.829c-0.002,0.383,0.021,0.76,0.045,1.138
			C438.225,243.028,436.458,246.018,435.278,249.289z"/>
		<path d="M213.116,216.369c10.754,0,21.219-5.143,27.76-13.685c6.585-8.605,8.875-20.093,5.994-30.548
			c-2.848-10.331-10.42-18.975-20.328-23.075c-9.932-4.109-21.383-3.424-30.725,1.899c-9.416,5.367-15.889,14.943-17.365,25.682
			c-1.354,9.84,1.617,19.87,8.096,27.39C193.153,211.7,202.968,216.369,213.116,216.369z"/>
	</g>
</g>
<g>
</g>
<g>
</g>
<g>
</g>
<g>
</g>
<g>
</g>
<g>
</g>
<g>
</g>
<g>
</g>
<g>
</g>
<g>
</g>
<g>
</g>
<g>
</g>
<g>
</g>
<g>
</g>
<g>
</g>
</svg>
