<?xml version="1.0" encoding="iso-8859-1"?>
<!-- Generator: Adobe Illustrator 19.0.0, SVG Export Plug-In . SVG Version: 6.00 Build 0)  -->
<svg version="1.1" id="Capa_1" xmlns="http://www.w3.org/2000/svg" xmlns:xlink="http://www.w3.org/1999/xlink" x="0px" y="0px"
	 viewBox="0 0 512 512" style="enable-background:new 0 0 512 512;" xml:space="preserve">
<g>
	<g>
		<path d="M256,101.08c-48.245,0-87.501,39.256-87.501,87.501s39.256,87.501,87.501,87.501s87.501-39.256,87.501-87.501
			S304.245,101.08,256,101.08z"/>
	</g>
</g>
<g>
	<g>
		<polygon points="236.342,399.841 235.872,399.411 224.723,389.322 198.486,365.584 169.958,368.654 152.5,370.524 
			148.361,370.974 135.032,372.404 93.056,461.605 158.06,462.465 200.135,512 247.971,410.36 		"/>
	</g>
</g>
<g>
	<g>
		<polygon points="376.968,372.404 363.639,370.974 359.5,370.534 342.042,368.654 313.514,365.584 287.277,389.322 
			276.128,399.411 275.658,399.841 264.029,410.36 311.865,512 353.94,462.465 418.944,461.605 		"/>
	</g>
</g>
<g>
	<g>
		<path d="M409.245,188.582l26.107-58.274L379.978,98.51l-13.129-62.494l-63.494,6.819L256,0l-47.355,42.836l-63.494-6.819
			L132.022,98.51l-55.375,31.797l26.107,58.274l-26.107,58.274l55.375,31.797l13.129,62.494l4.84-0.52l17.468-1.88l17.458-1.87
			l4.68-0.5h0.01l19.038-2.05l14.319,12.949l15.109,13.669l4.71,4.26l6.919,6.259l6.299,5.699l6.299-5.699l6.919-6.259l4.71-4.26
			l11.749-10.619l0.01-0.01l17.668-15.988l30.857,3.31h0.01l3.14,0.34l7.179,0.77h0.01l17.458,1.88l4.84,0.52l13.129-62.494
			l55.375-31.797L409.245,188.582z M256,306.08c-64.784,0-117.499-52.705-117.499-117.499c0-64.784,52.715-117.499,117.499-117.499
			s117.499,52.715,117.499,117.499C373.499,253.375,320.784,306.08,256,306.08z"/>
	</g>
</g>
<g>
</g>
<g>
</g>
<g>
</g>
<g>
</g>
<g>
</g>
<g>
</g>
<g>
</g>
<g>
</g>
<g>
</g>
<g>
</g>
<g>
</g>
<g>
</g>
<g>
</g>
<g>
</g>
<g>
</g>
</svg>
