<?xml version="1.0" standalone="no"?>
<!DOCTYPE svg PUBLIC "-//W3C//DTD SVG 20010904//EN"
 "http://www.w3.org/TR/2001/REC-SVG-20010904/DTD/svg10.dtd">
<svg version="1.0" xmlns="http://www.w3.org/2000/svg"
 width="686.000000pt" height="1280.000000pt" viewBox="0 0 686.000000 1280.000000"
 preserveAspectRatio="xMidYMid meet">
<metadata>
Created by potrace 1.15, written by Peter Selinger 2001-2017
</metadata>
<g transform="translate(0.000000,1280.000000) scale(0.100000,-0.100000)"
fill="#000000" stroke="none">
<path d="M2964 10070 c-391 -27 -771 -114 -1103 -250 -240 -99 -380 -181 -430
-253 -62 -90 -62 -95 -59 -834 l3 -668 26 -56 c37 -79 76 -104 159 -104 79 1
98 10 245 120 292 218 578 350 905 420 169 36 363 44 480 21 274 -55 423 -234
421 -504 -1 -299 -140 -504 -641 -943 -301 -264 -465 -459 -580 -689 -169
-339 -215 -776 -125 -1183 39 -176 90 -264 179 -306 47 -23 156 -35 396 -45
74 -3 183 -9 242 -12 109 -7 455 9 582 27 195 27 254 128 193 330 -41 135 -48
178 -48 289 1 292 113 465 546 838 438 377 598 539 758 772 182 266 291 543
332 850 19 141 19 467 0 613 -97 744 -583 1267 -1366 1471 -144 38 -314 68
-472 86 -137 14 -497 20 -643 10z"/>
<path d="M3050 4671 c-173 -29 -416 -133 -548 -235 -268 -206 -402 -515 -363
-836 53 -429 388 -760 847 -836 110 -18 337 -15 434 6 518 110 841 532 789
1031 -42 410 -326 712 -798 845 -93 27 -276 39 -361 25z"/>
</g>
</svg>
