<?xml version="1.0" encoding="UTF-8"?>
<!DOCTYPE svg PUBLIC "-//W3C//DTD SVG 1.1//EN" "http://www.w3.org/Graphics/SVG/1.1/DTD/svg11.dtd">
<!-- Creator: CorelDRAW -->
<svg xmlns="http://www.w3.org/2000/svg" xml:space="preserve" width="120px" height="120px" style="shape-rendering:geometricPrecision; text-rendering:geometricPrecision; image-rendering:optimizeQuality; fill-rule:evenodd; clip-rule:evenodd"
viewBox="0 0 120 120"
 xmlns:xlink="http://www.w3.org/1999/xlink">
 <defs>
  <style type="text/css">
   <![CDATA[
    .fil0 {fill:#29B1FF}
    .fil1 {fill:#2D7BA8}
    .fil5 {fill:#404040}
    .fil2 {fill:#74CAFC}
    .fil3 {fill:#939298}
    .fil4 {fill:#BCBDC2}
    .fil7 {fill:#E61515}
    .fil6 {fill:white}
    .fil8 {fill:#2B2A29;fill-rule:nonzero}
   ]]>
  </style>
 </defs>
 <g id="Слой_x0020_1">
  <metadata id="CorelCorpID_0Corel-Layer"/>
  <g id="_233204856">
   <path id="_233209200" class="fil0" d="M47.8145 35.7585c-2.87096,4.5714 2.87096,4.38116 5.54688,2.39244 2.47536,-1.83996 -0.24956,-5.28828 -3.40224,-4.03556 -0.72964,0.28968 -1.52636,0.65852 -2.14464,1.64312z"/>
   <path id="_233208048" class="fil0" d="M26.9481 51.9568c-0.47088,3.62956 0.66652,5.35528 2.10368,5.32196 5.71644,-0.13208 2.18464,-12.0331 5.18496,-18.2637 0,0 -6.27728,5.14836 -7.28864,12.9417z"/>
   <path id="_233207976" class="fil0" d="M12.2376 32.5088c0.88788,0.95788 3.06956,1.76292 5.75644,0.08652 2.36424,-1.47484 4.28304,-4.2092 3.93684,-5.9014 -6.51668,-3.03988 -11.9963,3.3312 -9.69328,5.81488z"/>
   <path id="_233208552" class="fil0" d="M12.0865 52.362c1.2454,-0.05876 3.26048,-1.09104 4.49864,-3.24224 1.6134,-2.8034 -0.72884,-6.2092 -5.58076,-0.91784 -1.9792,2.15864 -1.15332,4.26528 1.08212,4.16008z"/>
   <path id="_233208240" class="fil0" d="M11.6041 68.194c-1.98116,3.1794 1.32264,8.16976 5.87992,4.00992 4.55748,-4.15988 2.23328,-17.2467 2.23328,-17.2467 -1.10056,9.50816 -6.13208,10.057 -8.1132,13.2368z"/>
   <path id="_233207952" class="fil0" d="M2.7128 67.7093c-0.66812,2.96284 4.62744,2.87796 5.20656,-0.16252 0.67652,-3.55232 -4.14444,-4.5476 -5.20656,0.16252z"/>
   <path id="_233208432" class="fil0" d="M19.0507 87.6778c0.51404,2.92028 3.3358,2.22292 3.16348,-0.55704 -0.31504,-5.07952 -3.72804,-2.64988 -3.16348,0.55704z"/>
   <path id="_233208192" class="fil0" d="M72.3992 54.6147c12.7838,38.8739 -16.881,58.8253 -46.4512,37.9928 -2.08368,-1.46868 -3.05464,-1.8564 -3.40184,-1.38424 -0.39108,0.53196 -0.10664,1.23916 0.17096,1.7292 2.23284,3.9388 17.0068,27.252 50.1205,19.7542 19.9382,-4.51452 25.389,-19.4238 27.9655,-31.0665 3.21776,-14.5402 -1.0306,-29.5112 -7.65372,-43.1825 -2.12836,-4.39348 -4.13656,-7.86524 -6.461,-12.004 -3.49828,-6.22852 -6.52392,-5.33144 -7.22672,-3.15928 -0.70296,2.1722 -1.82276,5.64356 -5.05832,3.9982 -2.27404,-1.1566 -3.08644,-3.43068 -3.6912,-5.8864 -0.65028,-2.64068 -1.06036,-5.49212 -2.78844,-7.3894 -0.84296,-0.92584 -2.0274,-1.56012 -3.05348,-1.56896 -3.0082,-0.02608 -1.38796,4.3676 -4.21008,6.30124 -2.395,1.64088 -6.00404,0.06452 -9.91384,-6.1424 -2.13132,-3.38324 -4.44808,-5.2386 -6.4116,-6.01256 -4.20264,-1.65648 -6.7864,1.64044 -2.46516,5.50792 4.05228,3.62688 4.028,8.23368 -1.62788,9.74488 -4.99012,1.33304 -10.1083,-1.49828 -12.7403,5.44692 -2.6322,6.94476 2.78276,3.25848 -0.69732,8.76476 -3.48024,5.50632 -7.28512,9.14428 -6.04048,12.1338 1.24444,2.98952 3.93524,-3.27064 6.0056,-6.7798 12.4386,-21.0819 42.0214,-11.7979 38.6988,-6.16684 -0.51772,0.87732 -9.05124,-1.45984 -7.6378,5.03496 1.4138,6.49456 14.4844,3.36428 16.0374,6.87716 1.55304,3.51304 -2.91524,3.05692 -1.46832,7.45676z"/>
   <path id="_233208264" class="fil1" d="M7.53568 65.4046c0.07528,1.5554 -0.66748,3.51348 -2.69904,3.73436 -0.97192,0.1056 -1.6424,-0.1046 -2.10288,-0.4206 0.61928,1.88064 4.68256,1.47012 5.1856,-1.17156 0.16976,-0.89192 -0.00688,-1.62256 -0.38368,-2.1422z"/>
   <path id="_233208504" class="fil1" d="M13.7107 72.5456c-1.86824,-0.37108 -3.13112,-2.28644 -1.67632,-4.95052 -0.15524,0.19048 -0.29956,0.38896 -0.43028,0.59892 -1.98116,3.1794 1.32264,8.16976 5.87992,4.00992 4.55748,-4.15988 2.23328,-17.2467 2.23328,-17.2467 -0.0608,0.52416 0.08332,-0.47172 0,0 0.87136,3.68936 0.56908,18.8951 -6.0066,17.5884z"/>
   <path id="_233207832" class="fil1" d="M29.0518 57.2788c5.71644,-0.13208 2.18464,-12.0331 5.18496,-18.2637 0,0 -1.09604,0.89892 -2.44576,2.51388 -2.08348,2.8938 2.16408,14.9826 -3.25988,14.9117 -0.57304,-0.0074 -1.06196,-0.22416 -1.38756,-0.80276 0.3856,1.12124 1.09936,1.65956 1.90824,1.64084z"/>
   <path id="_233207208" class="fil1" d="M12.0865 52.362c1.2454,-0.05876 3.26048,-1.09104 4.49864,-3.24224 0.72164,-1.25396 0.65184,-2.62836 -0.07976,-3.29116 0.0294,1.61228 -0.64164,3.79392 -3.86156,5.23484 -1.099,0.49192 -1.9186,0.54924 -2.54376,0.38712 0.33088,0.59624 1.02956,0.95644 1.98644,0.91144z"/>
   <path id="_233207784" class="fil1" d="M12.2376 32.5088c0.88788,0.95788 3.06956,1.76292 5.75644,0.08652 2.36424,-1.47484 4.28304,-4.2092 3.93684,-5.9014 -0.12664,-0.059 0.12584,0.05216 0,0 -0.197,1.6026 -2.17072,3.92212 -4.29284,5.16748 -2.45416,1.43988 -5.27456,1.45488 -5.89736,-1.23344 -0.11724,0.71296 0.0296,1.37684 0.49692,1.88084z"/>
   <path id="_233207640" class="fil1" d="M32.9402 23.1424c2.04132,-0.29812 5.94796,0.08468 8.88144,-0.62832 7.73704,-1.8806 3.70708,-7.01956 0.44012,-10.9536 -3.56904,-4.299 0.49736,-6.39452 7.33512,1.17628 7.36532,8.15476 11.0998,9.73112 12.9154,5.65404 0.75472,-1.69532 1.1278,-3.89748 2.07268,-4.40704 1.32756,-0.71608 3.22992,0.902 4.0478,3.15656 1.40028,3.85968 1.45244,11.2536 6.48372,11.9602 5.03132,0.7066 4.2354,-5.11076 6.58724,-5.98008 3.17876,-1.17508 10.1108,11.7344 15.5999,27.0534 2.86196,7.98748 3.97408,16.9191 4.32616,26.2243 1.59692,-16.5978 -6.70232,-39.4194 -16.1286,-52.3716 -2.12052,-2.91372 -5.08284,-3.68832 -6.03952,-0.73208 -0.70296,2.172 -1.82276,5.64356 -5.05832,3.9982 -2.27404,-1.1566 -3.08644,-3.43068 -3.6912,-5.8864 -0.65028,-2.64068 -1.06036,-5.49212 -2.78844,-7.3894 -0.84296,-0.92584 -2.0274,-1.56012 -3.05348,-1.56896 -3.0082,-0.02608 -1.38796,4.3676 -4.21008,6.30124 -2.395,1.64088 -6.00404,0.06452 -9.91384,-6.1424 -2.13132,-3.38324 -4.44808,-5.2386 -6.4116,-6.01256 -4.20264,-1.65648 -6.7864,1.64044 -2.46516,5.50792 4.05228,3.62688 4.028,8.23368 -1.62788,9.74488 -4.40792,1.17752 -8.9156,-0.8942 -11.7215,3.39284 0.75748,-0.72116 0.55852,-1.5336 4.42008,-2.0974z"/>
   <path id="_233207472" class="fil1" d="M60.5224 27.2556c-8.7658,-2.17444 -17.1929,-1.11384 -22.8985,2.25664 -5.70568,3.37048 -9.38824,7.63824 -11.2296,11.1176 -1.84136,3.47936 -3.18992,4.26752 -4.56452,6.11592 -1.3746,1.84836 -0.1884,2.22928 -0.1884,2.22928 1.39268,-0.13024 3.46124,-4.73764 5.12776,-7.5624 12.4386,-21.0819 42.0214,-11.7979 38.6988,-6.16684 -0.51772,0.87732 -9.05124,-1.45984 -7.6378,5.03496 1.4138,6.49456 14.4844,3.36428 16.0374,6.87716 1.55304,3.51304 -2.91524,3.05692 -1.46832,7.45676 12.7838,38.8739 -16.881,58.8253 -46.4512,37.9928 -1.29952,-0.916 -2.166,-1.41136 -2.71864,-1.5402 2.35812,5.05652 15.9365,17.5121 36.0981,14.4418 24.2745,-3.69656 19.0878,-36.1512 16.9094,-43.164 -2.17836,-7.01276 -3.26776,-7.774 -1.81552,-10.0572 1.45228,-2.28316 2.69728,-3.80544 1.14116,-6.68672 -1.55616,-2.88124 -10.944,-2.1734 -13.9524,-2.77132 -3.00836,-0.59792 -4.20144,-5.32776 -1.01152,-5.98008 3.18992,-0.65236 5.05892,0.29996 6.87444,-0.40684 1.81548,-0.7068 1.81528,-7.013 -6.95052,-9.18744z"/>
   <path id="_233207616" class="fil1" d="M20.8519 89.5442c0.76336,-0.135 1.44992,-1.01008 1.36228,-2.42348 -0.09724,-1.56852 -0.48992,-2.421 -0.9696,-2.75572 -0.24956,1.49212 -0.09412,1.32916 0.06156,3.34048 0.07368,0.95296 -0.09704,1.55804 -0.45424,1.83872z"/>
   <path id="_233207592" class="fil1" d="M52.9086 34.2575c0.83276,1.14652 1.0676,2.83956 -1.00824,4.00108 -2.15992,1.20852 -3.66904,0.96752 -4.49552,0.61844 1.07116,1.11856 4.1854,0.59008 5.9566,-0.72612 1.60868,-1.1958 1.02116,-3.07072 -0.45284,-3.8934z"/>
   <path id="_233207448" class="fil2" d="M71.1878 28.6678c0,0 -2.5624,-4.16932 -6.08088,-4.32628 -3.51848,-0.1572 -1.05132,1.82536 2.32972,4.007 3.38104,2.18204 4.46004,2.08444 3.75116,0.31928z"/>
   <path id="_233207376" class="fil2" d="M40.1834 25.7855c0,0 -9.21396,-0.28992 -9.49524,3.25808 -0.28152,3.548 3.1842,1.30576 6.44236,-0.42632 3.25816,-1.73188 4.64608,-2.31748 3.05288,-2.83176z"/>
   <path id="_233206440" class="fil2" d="M42.5774 10.927c1.08432,1.31212 2.52772,2.19356 3.68748,3.10772 1.504,1.18612 2.87684,4.9026 2.86784,2.60816 -0.0106,-2.64824 -1.04036,-4.51348 -2.30736,-5.70516 -2.51184,-2.36184 -5.9564,-2.07956 -4.24796,-0.01072z"/>
   <path id="_233206704" class="fil2" d="M13.9259 30.6191c-1.21424,2.51144 3.72512,1.11876 4.44104,-0.08548 1.78376,-3 -2.90604,-3.08856 -4.44104,0.08548z"/>
   <path id="_233206632" class="fil2" d="M17.9088 63.7574c0,0 -0.40896,4.52128 -2.69868,6.24532 -2.28912,1.72428 -3.02016,-0.74932 -1.681,-2.23852 1.33932,-1.48924 3.72156,-2.6078 4.37968,-4.0068z"/>
   <path id="_233206560" class="fil2" d="M5.15856 65.6206c0,0 -0.82828,-0.58868 -1.77276,0.98932 -0.94472,1.57776 1.05604,1.73804 1.7598,0.83152 0.7038,-0.90672 0.99096,-1.12372 0.01296,-1.82084z"/>
   <path id="_233206368" class="fil2" d="M79.0584 33.749c0,0 -3.96464,2.35484 -2.03896,7.3288 1.92528,4.97412 8.11848,5.2706 8.42724,10.1141 0.30916,4.84284 -0.43776,2.7362 2.58376,6.7278 3.02132,3.9916 -3.9666,11.9616 1.03508,13.7198 5.00172,1.7584 1.59476,-11.7574 4.31576,-11.0522 2.721,0.70496 4.06424,-0.72304 2.55144,-3.77444 -1.51284,-3.05136 -3.35556,-1.51016 -4.70784,-6.9696 -1.35208,-5.45944 -3.37948,-6.4572 -6.81976,-8.87452 -3.44004,-2.41688 -1.05584,-8.28236 -5.34672,-7.21968z"/>
   <g>
    <path id="_233206608" class="fil3" d="M44.9246 82.4771c3.5758,7.11044 10.3282,13.2837 18.991,17.0539 2.90656,1.26504 6.0282,2.2596 9.317,2.92816 10.7718,2.18976 21.1268,0.43408 28.8124,-4.12108 6.49328,-3.84852 11.081,-9.69544 12.405,-16.8494 1.32384,-7.154 -0.84572,-14.3745 -5.4956,-20.4883 -5.50328,-7.23624 -14.4812,-12.922 -25.2531,-15.1118 -3.2888,-0.66856 -6.53876,-0.96928 -9.68592,-0.93488 -9.2646,0.1012 -17.6368,3.10732 -23.4806,8.18632 0,0 -7.93308,-3.10176 -8.97908,-2.20708 -1.04596,0.8948 0.05152,11.9359 0.05152,11.9359 -0.8186,1.00484 -1.38572,2.17772 -1.62692,3.4812 -0.23488,1.26916 -0.139,2.54464 0.23632,3.76696 -0.62968,1.25924 -4.82948,9.74696 -4.22708,10.8943 0.59464,1.13244 7.70704,1.4236 8.93512,1.46564z"/>
    <path id="_233206584" class="fil4" d="M111.957 71.7312c-9.49864,-31.7569 -62.1467,-34.7044 -67.7897,-4.20976 -0.212,1.1456 -0.33144,2.29288 -0.36276,3.43692 15.7712,-33.3186 64.3006,-14.5554 68.1525,0.77284z"/>
    <path id="_233207040" class="fil5" d="M105.977 92.5976c-9.16804,6.45664 -51.5831,13.8025 -61.8478,-19.2795 2.22008,28.2365 47.641,36.7736 61.8478,19.2795z"/>
    <path id="_233206776" class="fil5" d="M42.2536 73.7132c-0.25928,-2.2658 -0.19356,-4.56328 0.23036,-6.85408 0.42392,-2.29076 1.18248,-4.4474 2.23112,-6.44732 -1.23524,0.62876 -2.29548,1.46012 -3.108,2.45716 -0.81856,1.00484 -1.38568,2.17776 -1.62688,3.4812 -0.23488,1.26912 -0.139,2.5446 0.23624,3.767 0.39248,1.27924 1.09124,2.50064 2.03716,3.59604z"/>
    <path id="_233206536" class="fil5" d="M44.9246 82.4771c-1.41084,-2.80548 -2.327,-5.75672 -2.67092,-8.76388 -0.94592,-1.0954 -1.64468,-2.3168 -2.03716,-3.59604 -0.6296,1.2592 -4.82944,9.74692 -4.22704,10.8943 0.5946,1.1324 7.70704,1.42356 8.93512,1.4656z"/>
    <path id="_233206656" class="fil5" d="M44.7151 60.4118c1.4348,-2.73664 3.41276,-5.17992 5.81952,-7.27168 0,0 -7.933,-3.1018 -8.97904,-2.20708 -1.046,0.89476 0.05152,11.9359 0.05152,11.9359 0.81252,-0.99704 1.87276,-1.8284 3.108,-2.45716z"/>
    <path id="_233205648" class="fil3" d="M41.3482 52.0538c0.8522,-0.72904 6.27564,1.19472 8.2562,1.93264 0.30252,-0.28804 0.61256,-0.57032 0.9302,-0.84628 0,0 -7.933,-3.1018 -8.97904,-2.20708 -0.1938,0.16572 -0.31412,0.68 -0.38132,1.40788 0.04996,-0.133 0.10776,-0.23052 0.17396,-0.28716z"/>
    <path id="_233205600" class="fil3" d="M39.86 67.4057c0.62528,-1.86832 1.9556,-3.41228 3.73092,-4.49928 0.32552,-0.85596 0.70136,-1.68812 1.1242,-2.4946 -1.23524,0.62876 -2.29548,1.46012 -3.108,2.45716 -0.81856,1.00484 -1.38568,2.17776 -1.62688,3.4812 -0.06512,0.35176 -0.10472,0.70392 -0.12024,1.05552z"/>
    <path id="_233206224" class="fil6" d="M35.9894 81.0115c0.5946,1.1324 7.70704,1.42356 8.93512,1.4656 -0.15604,-0.31032 -0.30596,-0.62228 -0.4498,-0.93596 -2.12416,-0.0936 -7.78876,-0.43596 -8.31664,-1.44116 -0.04844,-0.09212 -0.06576,-0.23168 -0.05656,-0.41084 -0.16916,0.63472 -0.22508,1.10728 -0.11212,1.32236z"/>
    <path id="_233206176" class="fil6" d="M84.1416 71.054c-0.83664,2.81888 2.11436,5.61696 4.09824,6.87168 0.56984,-0.01916 1.1266,-0.09088 1.60812,-0.19504 -1.2012,-0.75408 -2.58348,-2.21812 -2.87656,-4.86 -0.2408,-2.17092 1.07608,-2.984 1.94104,-3.2818 -0.11544,-0.27052 -0.20968,-0.50292 -0.27604,-0.68268 -0.08108,-0.21976 -0.16924,-0.43816 -0.266,-0.65676 -1.21508,0.02 -3.51216,0.39028 -4.2288,2.8046z"/>
    <path id="_233205624" class="fil6" d="M90.8294 74.5229c-0.41024,0 -0.7428,0.34856 -0.7428,0.77852 0,0.42992 0.33256,0.77848 0.7428,0.77848 0.4102,0 0.7428,-0.34856 0.7428,-0.77848 0,-0.42996 -0.3326,-0.77852 -0.7428,-0.77852z"/>
    <path id="_233205576" class="fil2" d="M88.9124 69.5889c-0.86496,0.2978 -2.18184,1.11088 -1.94104,3.2818 0.29308,2.64188 1.67536,4.10592 2.87656,4.86 0.46684,-0.101 0.86304,-0.23248 1.13184,-0.37616 -2.56044,-1.05064 -3.6262,-5.58704 -1.64456,-6.81048 -0.15884,-0.349 -0.30232,-0.67284 -0.4228,-0.95516z"/>
    <path id="_233206080" class="fil6" d="M76.4408 80.6233c-2.75024,4.39188 -3.40616,8.27176 -3.21888,11.3275 1.4206,-0.42364 5.88776,-1.93188 8.5654,-4.83684 -3.238,-2.7576 -4.75688,-5.30132 -5.34652,-6.49068z"/>
    <path id="_233206032" class="fil6" d="M73.2969 92.7996c0.073,0.62964 0.18024,1.219 0.30892,1.76444 3.50576,3.30784 8.46672,4.81732 13.7651,4.8996l0.07684 -0.22372c0.00056,-0.00176 0.22056,-0.6266 0.11808,-2.99188 -0.0544,-1.25488 -0.14624,-2.2708 -0.22204,-2.95852 -1.27172,1.4146 -3.66904,2.89656 -5.31624,3.75972l-0.67692 0.36084 0.09884 -0.78944c0.00184,-0.01512 0.6138,-4.81652 0.55532,-8.55492 -2.93356,2.90616 -7.45476,4.36952 -8.70788,4.73388z"/>
    <path id="_233205960" class="fil6" d="M82.8028 87.9399c0.05488,2.89008 -0.2928,6.42684 -0.46636,7.98572 2.22144,-1.28344 4.32036,-2.32696 5.29152,-4.87116 -1.8882,-1.0124 -3.48252,-2.07056 -4.82516,-3.11456z"/>
    <path id="_233205936" class="fil6" d="M87.8497 91.1716c0.2704,1.7012 0.43948,3.29876 0.51504,5.04032 0.05188,1.19652 0.01788,2.00136 -0.0324,2.51756 0.87908,-0.38168 2.546,-1.21588 4.18816,-2.6376 2.32936,-2.01676 2.37364,-2.311 2.37372,-2.31176l0.04924 -0.27536c-1.9432,-0.24028 -3.9282,-0.77168 -5.87588,-1.716 -0.41928,-0.2032 -0.82412,-0.40924 -1.21788,-0.61716z"/>
    <path id="_233205816" class="fil6" d="M93.0313 96.7388c-1.6428,1.42236 -3.31752,2.28748 -4.2752,2.71428 0.575,-0.0174 1.15276,-0.05076 1.732,-0.10004 2.08052,-0.17696 4.1774,-0.55604 6.22712,-1.11556l-0.0478 -0.20032c-0.00048,-0.0022 -0.16964,-0.7828 -0.64852,-1.89436 -0.26472,-0.6144 -0.56048,-1.17364 -0.77296,-1.55272 -0.36008,0.43096 -1.01696,1.11176 -2.21464,2.14872z"/>
    <path id="_233205720" class="fil6" d="M95.6211 93.6241c0.00176,0.00276 0.61832,0.99104 1.12792,2.17388 0.27936,0.64844 0.46092,1.19524 0.56824,1.55828 0.62432,-0.3062 1.86496,-0.97492 3.06236,-1.97376 1.68184,-1.40304 2.14252,-2.12716 2.1438,-2.12916l0.07764 -0.12208c-2.14236,0.43844 -4.53492,0.67008 -7.01132,0.44356l0.03136 0.04928z"/>
    <path id="_233205888" class="fil6" d="M102.742 94.2786c-0.35112,0.39388 -0.93844,0.98844 -1.86412,1.76064 -0.8972,0.7484 -1.82384,1.32296 -2.52172,1.7086 3.72628,-1.20836 7.23344,-3.01216 10.1212,-5.27792 0.53968,-0.6038 1.04192,-1.22444 1.50668,-1.85984 -0.18488,0.09004 -0.38648,0.1858 -0.6036,0.2856 -2.84548,3.15372 -5.79824,4.38512 -5.80684,4.38876l-0.36512 0.15528 -0.46652 -1.16112z"/>
    <path id="_233205672" class="fil6" d="M103.105 93.0232l0.52804 1.3144c0.65424,-0.32552 2.12264,-1.14112 3.75108,-2.60532 -1.22288,0.465 -2.6742,0.93228 -4.27912,1.29092z"/>
    <path id="_233205768" class="fil4" d="M74.4084 92.4442c-0.47608,0.16468 -0.85976,0.28224 -1.11148,0.35544 0.073,0.62964 0.18024,1.219 0.30892,1.76444 0.33924,0.32008 0.69208,0.62332 1.05764,0.91012 0,0 -0.2072,-1.33232 -0.25508,-3.03z"/>
    <path id="_233205840" class="fil4" d="M76.4408 80.6233c-2.75024,4.39188 -3.40616,8.27176 -3.21888,11.3275 0.2838,-0.08464 0.68912,-0.21252 1.17756,-0.3862 0.0214,-2.4366 0.4504,-5.24868 2.20656,-6.0096 1.01552,-0.44004 2.14404,0.8962 3.96516,2.69736 0.43164,-0.35268 0.84136,-0.73184 1.21612,-1.1384 -3.238,-2.7576 -4.75688,-5.30132 -5.34652,-6.49068z"/>
    <path id="_233205528" class="fil4" d="M82.7745 90.2678c1.07824,0.89076 2.34052,1.78228 3.8406,2.55256 0.40652,-0.5022 0.75072,-1.07944 1.0128,-1.76596 -1.8882,-1.0124 -3.48252,-2.07056 -4.82516,-3.11456 0.0142,0.74784 0.00144,1.53904 -0.02824,2.32796z"/>
    <path id="_233205288" class="fil4" d="M82.0048 88.0657c-0.26864,0.26612 -0.5506,0.52016 -0.84212,0.7624 0.26368,0.25188 0.54092,0.50972 0.83288,0.77036 0.01292,-0.5206 0.017,-1.03604 0.00924,-1.53276z"/>
    <path id="_233205000" class="fil4" d="M87.8497 91.1716c0.12736,0.80152 0.23228,1.58004 0.31556,2.36152 1.62032,0.66124 3.4838,1.16928 5.6402,1.411 1.0626,-0.99024 1.08868,-1.1634 1.08876,-1.164l0.04924 -0.27536c-1.9432,-0.24028 -3.9282,-0.77168 -5.87588,-1.716 -0.41928,-0.2032 -0.82412,-0.40924 -1.21788,-0.61716z"/>
    <path id="_233205408" class="fil4" d="M95.246 94.5901c-0.10588,0.12676 -0.23752,0.27516 -0.401,0.44784 0.21828,0.01508 0.43944,0.0274 0.6634,0.03708 -0.09492,-0.18184 -0.18428,-0.34552 -0.2624,-0.48492z"/>
    <path id="_233205072" class="fil4" d="M95.6211 93.6241c0.00136,0.0022 0.39032,0.6256 0.80552,1.47432 1.43528,0.01208 2.9832,-0.08752 4.65468,-0.3236 1.11292,-1.00392 1.441,-1.5198 1.44212,-1.52148l0.07764 -0.12208c-2.14236,0.43844 -4.53492,0.67008 -7.01132,0.44356l0.03136 0.04928z"/>
    <path id="_233205432" class="fil4" d="M102.742 94.2786c-0.07244,0.08128 -0.15492,0.17108 -0.24836,0.2692 0.11012,-0.01984 0.22076,-0.0402 0.33192,-0.0612l-0.08356 -0.208z"/>
    <path id="_233205504" class="fil4" d="M103.105 93.0232l0.52372 1.30372c0.01476,-0.00312 0.02952,-0.0062 0.04436,-0.00932 0.67268,-0.33824 2.115,-1.1502 3.71104,-2.58532 -1.22288,0.465 -2.6742,0.93228 -4.27912,1.29092z"/>
    <path id="_233205240" class="fil4" d="M109.38 90.8957c-1.07892,1.19576 -2.17328,2.11516 -3.11668,2.79608 0.29776,-0.08088 0.59872,-0.16556 0.90296,-0.25424 0.4494,-0.31224 0.88672,-0.63492 1.31064,-0.9676 0.53968,-0.6038 1.04192,-1.22444 1.50668,-1.85984 -0.18488,0.09004 -0.38648,0.1858 -0.6036,0.2856z"/>
    <path id="_233205312" class="fil7" d="M112.104 87.0995c0.76132,-1.56284 1.3272,-3.18652 1.699,-4.84832 0.0508,-0.27456 0.10388,-0.5616 0.1594,-0.86156 0.04772,-0.25776 0.0936,-0.50596 0.13788,-0.74496 0.12788,-0.87 0.20408,-1.74832 0.2286,-2.63176 -0.33056,-0.39092 -0.71612,-0.72444 -1.14528,-0.98584 -0.6268,-0.38184 -1.3472,-0.61236 -2.12496,-0.6464 -1.38148,-0.06056 -2.68576,0.50408 -3.6772,1.46588 -0.99804,0.96828 -1.6792,2.33956 -1.80652,3.88416 -0.0094,0.11368 -0.01556,0.20228 -0.01796,0.26424 -0.05712,1.43304 0.3868,2.74296 1.16712,3.72192 0.77264,0.96936 1.87812,1.61468 3.153,1.73012 0.09408,0.00864 0.165,0.01404 0.21104,0.01604 0.47204,0.0206 0.93732,-0.03252 1.3852,-0.15032 0.21508,-0.05656 0.42564,-0.12796 0.63068,-0.2132z"/>
   </g>
   <path id="_233205216" class="fil8" d="M83.7946 45.3844c10.0411,2.04124 18.5463,7.09608 24.1792,13.6178 4.70796,5.45092 7.41416,11.9279 7.34824,18.5384l0.0004 0.00068 -0.00048 0.00092c-0.01348,1.345 -0.14136,2.69572 -0.39088,4.04424 -0.7104,3.83876 -2.33836,7.3072 -4.6822,10.3037l0.00032 0.00032 -0.00188 0.0016c-2.52664,3.22952 -5.88508,5.91068 -9.82468,7.91504 -7.55076,3.84172 -17.2422,5.19748 -27.2833,3.15628 -10.0411,-2.0412 -18.5463,-7.09608 -24.1792,-13.6178 -5.66628,-6.56044 -8.43336,-14.6072 -6.9572,-22.5843 1.4762,-7.97716 6.91292,-14.3562 14.5084,-18.2208 7.55068,-3.84164 17.2421,-5.1974 27.2833,-3.1562zm4.4452 32.5413c-1.98388,-1.25472 -4.93488,-4.0528 -4.09824,-6.87168 0.71664,-2.41432 3.01372,-2.7846 4.2288,-2.8046 0.09676,0.2186 0.18492,0.437 0.266,0.65676 0.06636,0.17976 0.1606,0.41216 0.27604,0.68268 0.12048,0.28232 0.26396,0.60616 0.4228,0.95516 -1.98164,1.22344 -0.91588,5.75984 1.64456,6.81048 -0.2688,0.14368 -0.665,0.27516 -1.13184,0.37616 -0.48152,0.10416 -1.03828,0.17588 -1.60812,0.19504zm-0.30692 -10.522c-5.66096,0.74252 -6.21704,7.33224 -0.79244,10.4657 -2.16232,-0.29192 -4.05812,-1.60276 -5.89952,-2.8484 3.31756,3.45944 7.84848,5.523 11.933,2.18456 0.95356,0.64988 2.35268,1.07736 4.55056,1.0038 0,0 -4.26236,-1.42728 -5.81876,-4.31904 -1.5564,-2.8918 -2.13996,-6.09864 -3.76712,-8.249 -1.62716,-2.15032 -4.20944,-3.07712 -4.20944,-3.07712 1.25264,0.81188 3.05556,3.18752 4.00368,4.83948zm2.89648 7.1192c0.4102,0 0.7428,0.34856 0.7428,0.77852 0,0.42992 -0.3326,0.77848 -0.7428,0.77848 -0.41024,0 -0.7428,-0.34856 -0.7428,-0.77848 0,-0.42996 0.33256,-0.77852 0.7428,-0.77852zm19.1538 16.0876c-0.18468,0.09004 -0.386,0.18556 -0.6028,0.28528 -2.84548,3.15372 -5.74276,4.68896 -5.75132,4.6926l-0.36516 0.15528 -0.522 -1.46496c-0.35112,0.39388 -0.93844,0.98844 -1.86412,1.76064 -0.8972,0.7484 -1.82384,1.32296 -2.52172,1.7086 3.7258,-1.2082 7.23256,-3.01188 10.1202,-5.27724 0.53976,-0.60388 1.04208,-1.2246 1.50692,-1.8602zm-4.69464 4.87388c-4.40032,2.57464 -9.59984,4.26912 -14.7377,4.70612 -6.16656,0.52448 -12.1978,-0.68896 -16.5221,-4.16704 0.67316,1.95016 1.33444,3.19516 1.34104,3.20416l0 0c-1.16744,-0.98836 -1.9594,-2.27964 -2.44316,-3.73744 -1.60848,-4.84672 0.00304,-14.7728 4.94908,-16.947 -0.32648,0.43236 -0.63028,0.86012 -0.91592,1.28368 0.4882,1.143 3.27012,6.75272 12.4431,11.2 9.96076,4.82924 20.999,-1.54136 21.566,-1.8754 0.10548,-0.16948 0.20848,-0.3398 0.30888,-0.51108 -0.40232,0.06964 -0.816,0.09728 -1.23664,0.07888 -0.114,-0.00496 -0.20224,-0.01044 -0.26512,-0.01608l-0.0024 0c-1.60584,-0.14544 -2.99796,-0.95792 -3.97072,-2.1784 -0.96504,-1.21072 -1.51452,-2.82292 -1.44448,-4.57912 0.0052,-0.13224 0.01128,-0.23908 0.01796,-0.32088l0 -0.00252c0.15352,-1.86264 0.98012,-3.52124 2.192,-4.697 1.21848,-1.18204 2.82744,-1.87576 4.53728,-1.80084 0.98232,0.04304 1.89056,0.33328 2.67956,0.81392 0.21008,0.12796 0.37984,0.2402 0.52468,0.35048 -0.26952,-5.67348 -2.63504,-11.4757 -7.05984,-16.5999 -5.4954,-6.36228 -13.8105,-11.2974 -23.642,-13.2959 -9.8316,-1.9986 -19.304,-0.67948 -26.6704,3.06816 -7.32164,3.72516 -12.5578,9.85156 -13.9724,17.4958 -1.41468,7.64432 1.25664,15.3782 6.71868,21.702 5.49552,6.36228 13.8106,11.2974 23.6421,13.2959 9.83152,1.9986 19.304,0.67948 26.6703,-3.06812 2.79452,-1.42136 0.93464,-0.37768 3.03996,-1.76452 0.79276,-0.5222 1.54348,-1.06892 2.25228,-1.63792zm2.09512 -3.752c-1.22288,0.465 -2.6742,0.93228 -4.27912,1.29092l0.52804 1.3144c0.65424,-0.32552 2.12264,-1.14112 3.75108,-2.60532zm-4.78256 1.39896c-2.14236,0.43844 -4.53492,0.67008 -7.01132,0.44356l0.03136 0.04928c0.00176,0.00276 0.61832,0.99104 1.12792,2.17388 0.27936,0.64844 0.46092,1.19524 0.56824,1.55828 0.62432,-0.3062 1.86496,-0.97492 3.06236,-1.97376 1.68184,-1.40304 2.14252,-2.12716 2.1438,-2.12916l0.07764 -0.12208zm-7.6576 0.37344c-1.9432,-0.24028 -3.9282,-0.77168 -5.87588,-1.716 -0.41928,-0.2032 -0.82412,-0.40924 -1.21788,-0.61716 0.2704,1.7012 0.43948,3.29876 0.51504,5.04032 0.05188,1.19652 0.01788,2.00136 -0.0324,2.51756 0.87908,-0.38168 2.546,-1.21588 4.18816,-2.6376 2.32936,-2.01676 2.37364,-2.311 2.37372,-2.31176l0.04924 -0.27536zm-7.31556 -2.45028c-1.8882,-1.0124 -3.48252,-2.07056 -4.82516,-3.11456 0.05488,2.89008 -0.2928,6.42684 -0.46636,7.98572 2.22144,-1.28344 4.32036,-2.32696 5.29152,-4.87116zm-5.8406 -3.94048c-3.238,-2.7576 -4.75688,-5.30132 -5.34652,-6.49068 -2.75024,4.39188 -3.40616,8.27176 -3.21888,11.3275 1.4206,-0.42364 5.88776,-1.93188 8.5654,-4.83684zm8.7008 12.2391c2.08052,-0.17696 4.1774,-0.55604 6.22712,-1.11556l-0.0478 -0.20032c-0.00048,-0.0022 -0.16964,-0.7828 -0.64852,-1.89436 -0.26472,-0.6144 -0.56048,-1.17364 -0.77296,-1.55272 -0.36008,0.43096 -1.01696,1.11176 -2.21464,2.14872 -1.6428,1.42236 -3.31752,2.28748 -4.2752,2.71428 0.575,-0.0174 1.15276,-0.05076 1.732,-0.10004zm-16.8823 -4.78904c3.50576,3.30784 8.46672,4.81732 13.7651,4.8996l0.07684 -0.22372c0.00056,-0.00176 0.22056,-0.6266 0.11808,-2.99188 -0.0544,-1.25488 -0.14624,-2.2708 -0.22204,-2.95852 -1.27172,1.4146 -3.66904,2.89656 -5.31624,3.75972l-0.67692 0.36084 0.09884 -0.78944c0.00184,-0.01512 0.6138,-4.81652 0.55532,-8.55492 -2.93356,2.90616 -7.45476,4.36952 -8.70788,4.73388 0.073,0.62964 0.18024,1.219 0.30892,1.76444zm41.2097 -17.7837l0.00016 0.00016c0.30416,-1.64388 0.4006,-2.16504 -0.00016,-0.00016zm-0.27708 1.49824l-0.00024 -0.00032 -0.57584 3.11136c-2.34052,12.6494 -0.44384,2.40096 0.57608,-3.11104zm-0.2116 -0.268c-0.33008,-0.38996 -0.715,-0.72264 -1.14328,-0.98352 -0.6268,-0.38184 -1.3472,-0.61236 -2.12496,-0.6464 -1.38148,-0.06056 -2.68576,0.50408 -3.6772,1.46588 -0.99804,0.96828 -1.6792,2.33956 -1.80652,3.88416 -0.0094,0.11368 -0.01556,0.20228 -0.01796,0.26424 -0.05712,1.43304 0.3868,2.74296 1.16712,3.72192 0.77264,0.96936 1.87812,1.61468 3.153,1.73012 0.09408,0.00864 0.165,0.01404 0.21104,0.01604 0.47204,0.0206 0.93732,-0.03252 1.3852,-0.15032 0.2142,-0.05632 0.42396,-0.12736 0.6282,-0.21212 1.39876,-2.87164 2.13852,-5.94788 2.22536,-9.09zm-50.7603 21.8788c-3.64688,-3.90796 -6.3596,-8.75148 -7.86104,-14.0873 -1.44716,-5.14208 -1.7706,-10.7418 -0.72316,-16.4021 1.04752,-5.66036 3.3448,-10.7271 6.52124,-14.9296 3.29584,-4.3606 7.53952,-7.78992 12.3158,-9.98564l0.39192 0.93824c-4.62948,2.12824 -8.74352,5.45328 -11.9398,9.682 -3.08064,4.07584 -5.30964,8.99344 -6.32692,14.4905 -1.01728,5.4972 -0.70396,10.9316 0.69948,15.9189 1.45612,5.17444 4.08588,9.87048 7.62052,13.6583l-0.69808 0.71664zm-21.6748 -25.8328c-0.98944,-1.14592 -1.7222,-2.42608 -2.13692,-3.76892 -0.40396,-1.30772 -0.50752,-2.67432 -0.25572,-4.03524 0.25188,-1.36096 0.83536,-2.58792 1.67656,-3.64252 0.86352,-1.08296 1.99984,-1.9832 3.32636,-2.65828l0.42632 0.92048c-1.20016,0.6108 -2.22524,1.42144 -3.0002,2.39348 -0.73644,0.92364 -1.24716,1.99556 -1.4668,3.1824 -0.2196,1.18688 -0.12832,2.38128 0.22532,3.52644 0.37204,1.2052 1.03356,2.35876 1.92884,3.39544l-0.72376 0.68672zm-0.77024 -11.135c-0.00296,-0.0322 -1.12484,-11.3152 0.12524,-12.3845 1.2678,-1.08448 9.43348,2.11332 9.4568,2.12232l-0.33768 0.96144c-0.02184,-0.0084 -7.67736,-2.99668 -8.50132,-2.2918 -0.84144,0.71976 0.22524,11.4568 0.2282,11.4874l-0.97124 0.10516zm-0.3952 7.27872c-0.01364,0.02716 -4.83276,9.56756 -4.30904,10.565 0.5128,0.9766 8.67904,1.20468 8.70232,1.20536l-0.02976 1.02408c-0.0248,-0.00084 -8.73908,-0.2344 -9.52812,-1.73704 -0.778,-1.48152 4.28704,-11.5069 4.30132,-11.5355l0.86328 0.47812zm22.2545 -22.0055c0.3978,0.08088 0.72812,0.32444 0.93996,0.65256l0.00152 0.00244c0.2112,0.32864 0.30332,0.74076 0.22612,1.15768 -0.07756,0.4192 -0.31032,0.76616 -0.623,0.98744 -0.31252,0.22112 -0.7066,0.31772 -1.10656,0.23644 -0.39852,-0.08108 -0.729,-0.32488 -0.9402,-0.65252l-0.00152 -0.00236c-0.21096,-0.32768 -0.30312,-0.74016 -0.22588,-1.15792 0.07756,-0.41908 0.31032,-0.76616 0.62284,-0.98728 0.31268,-0.22128 0.7068,-0.31776 1.10672,-0.23648zm0.1298 1.22588c-0.0698,-0.10856 -0.18136,-0.18984 -0.31644,-0.21736 -0.13412,-0.02724 -0.26656,0.00532 -0.37156,0.07956 -0.10476,0.07416 -0.18304,0.19076 -0.20912,0.33132 -0.02616,0.1414 0.00448,0.28032 0.0746,0.3902 0.071,0.10928 0.18248,0.19092 0.3174,0.2184 0.13412,0.02724 0.26656,-0.00528 0.37132,-0.07944 0.10508,-0.07424 0.18328,-0.19084 0.20936,-0.3314 0.02616,-0.1416 -0.004,-0.28048 -0.07404,-0.38884l-0.00152 -0.00244zm-5.74528 5.23c0.39776,0.08088 0.7282,0.32452 0.94004,0.65264l0.00152 0.00236c0.2112,0.32864 0.3032,0.74084 0.22604,1.15776 -0.07756,0.41912 -0.31028,0.76616 -0.62304,0.98744 -0.31252,0.22112 -0.70652,0.31764 -1.10648,0.23632 -0.39856,-0.08104 -0.72908,-0.32484 -0.9402,-0.6524l-0.0016 -0.00244c-0.21088,-0.32772 -0.30312,-0.74016 -0.2258,-1.15784 0.07756,-0.4192 0.31036,-0.76616 0.6228,-0.98728 0.31276,-0.22128 0.70684,-0.31788 1.10672,-0.23656zm0.12976 1.22584c-0.06968,-0.10852 -0.18128,-0.18984 -0.31636,-0.21732 -0.1342,-0.02724 -0.26656,0.00532 -0.37164,0.07964 -0.10476,0.07404 -0.18304,0.19064 -0.20904,0.33124 -0.02612,0.1414 0.00444,0.28028 0.07452,0.39024 0.07108,0.10924 0.1826,0.19096 0.31752,0.21836 0.13412,0.02724 0.26656,-0.00532 0.37132,-0.07936 0.105,-0.07432 0.18328,-0.19096 0.20928,-0.33152 0.0262,-0.14156 -0.00404,-0.28044 -0.07396,-0.38884l-0.00164 -0.00244zm-3.7116 6.52312c0.3978,0.08088 0.72812,0.32444 0.93996,0.6526l0.0016 0.00244c0.21112,0.32864 0.30324,0.74076 0.22604,1.15768 -0.07756,0.41916 -0.31032,0.76616 -0.623,0.98744 -0.31252,0.22108 -0.70664,0.31768 -1.10648,0.2364 -0.3986,-0.08104 -0.72908,-0.32488 -0.94028,-0.65248l-0.00152 -0.00236c-0.21096,-0.32772 -0.30316,-0.7402 -0.22588,-1.15796 0.07756,-0.41908 0.31032,-0.76612 0.62284,-0.98724 0.31268,-0.22128 0.7068,-0.3178 1.10672,-0.23652zm0.1298 1.22588c-0.0698,-0.10852 -0.18136,-0.18984 -0.31644,-0.21732 -0.13412,-0.02724 -0.26656,0.00528 -0.37156,0.07952 -0.10476,0.07416 -0.18304,0.19076 -0.20912,0.33132 -0.02616,0.14144 0.00448,0.28032 0.0746,0.3902 0.07108,0.10928 0.18248,0.19092 0.3174,0.2184 0.1342,0.02724 0.26656,-0.00528 0.3714,-0.07944 0.105,-0.07424 0.18328,-0.19084 0.20928,-0.3314 0.02624,-0.14168 -0.004,-0.28048 -0.07404,-0.38884l-0.00152 -0.00244zm-1.57172 7.6582c0.39776,0.08088 0.72812,0.32444 0.93996,0.65256l0.00152 0.00244c0.2112,0.32864 0.30328,0.74076 0.22612,1.15776 -0.07756,0.41912 -0.31036,0.76608 -0.62304,0.98736 -0.31252,0.22112 -0.7066,0.31772 -1.10656,0.2364 -0.39848,-0.08104 -0.729,-0.32484 -0.9402,-0.6524l-0.00152 -0.00244c-0.21096,-0.32772 -0.30312,-0.74016 -0.22588,-1.15792 0.07756,-0.41912 0.31036,-0.76616 0.62288,-0.98728 0.31268,-0.22128 0.70676,-0.3178 1.10672,-0.23648zm0.1298 1.22584c-0.0698,-0.10852 -0.1814,-0.18984 -0.31648,-0.21732 -0.13412,-0.02724 -0.26652,0.00532 -0.37156,0.07956 -0.10476,0.07412 -0.18304,0.19076 -0.20908,0.33132 -0.02616,0.1414 0.00448,0.28028 0.07456,0.39016 0.071,0.10932 0.18252,0.19096 0.31744,0.21844 0.13412,0.02724 0.26656,-0.00532 0.37132,-0.07944 0.10508,-0.07424 0.18328,-0.19084 0.20936,-0.33144 0.02612,-0.14156 -0.00404,-0.28044 -0.07404,-0.38884l-0.00152 -0.00244zm0.2674 8.04736c0.3978,0.08088 0.7282,0.32444 0.94004,0.6526l0.00152 0.00244c0.2112,0.32864 0.30324,0.74076 0.22604,1.15768 -0.07756,0.41916 -0.31024,0.76616 -0.623,0.98744 -0.31252,0.22108 -0.70652,0.31768 -1.10648,0.2364 -0.3986,-0.08104 -0.72908,-0.32484 -0.9402,-0.65248l-0.0016 -0.00236c-0.21088,-0.32772 -0.30312,-0.74016 -0.2258,-1.15792 0.07756,-0.41912 0.31024,-0.76616 0.62276,-0.98728 0.31276,-0.22128 0.70688,-0.3178 1.10672,-0.23652zm0.1298 1.22588c-0.06972,-0.10852 -0.18128,-0.18984 -0.31636,-0.21732 -0.1342,-0.02724 -0.26664,0.00528 -0.37164,0.07952 -0.10476,0.07416 -0.18304,0.19076 -0.20904,0.33136 -0.02616,0.1414 0.0044,0.28028 0.07452,0.39016 0.07108,0.10928 0.18256,0.19092 0.31748,0.21844 0.13412,0.02724 0.26656,-0.00532 0.37132,-0.07948 0.105,-0.07424 0.18328,-0.19084 0.20928,-0.3314 0.02624,-0.14156 -0.004,-0.28048 -0.07396,-0.38884l-0.0016 -0.00244zm2.14388 7.04456c0.3978,0.08088 0.72812,0.32444 0.93996,0.65256l0.00152 0.00244c0.21124,0.32856 0.30332,0.74076 0.22616,1.15768 -0.0776,0.4192 -0.31036,0.76616 -0.62304,0.98744 -0.31252,0.22112 -0.7066,0.31764 -1.10656,0.23632 -0.39852,-0.08096 -0.72908,-0.32484 -0.9402,-0.6524l-0.00152 -0.00236c-0.21096,-0.3278 -0.3032,-0.74016 -0.22588,-1.15792 0.07756,-0.4192 0.31036,-0.76616 0.62284,-0.98728 0.31268,-0.22128 0.7068,-0.3178 1.10672,-0.23648zm0.1298 1.22584c-0.0698,-0.1086 -0.18136,-0.18992 -0.31644,-0.21732 -0.13412,-0.02732 -0.26656,0.0052 -0.37156,0.07952 -0.10484,0.07416 -0.18304,0.19068 -0.20912,0.33136 -0.02616,0.1414 0.00448,0.28028 0.0746,0.39016 0.071,0.10932 0.18248,0.19092 0.3174,0.21836 0.13412,0.02732 0.26656,-0.00524 0.37132,-0.07936 0.105,-0.07432 0.18328,-0.19088 0.20936,-0.33152 0.02616,-0.14156 -0.004,-0.28036 -0.07404,-0.38884l-0.00152 -0.00236z"/>
  </g>
 </g>
</svg>
