<?xml version="1.0" standalone="no"?>
<!DOCTYPE svg PUBLIC "-//W3C//DTD SVG 20010904//EN"
 "http://www.w3.org/TR/2001/REC-SVG-20010904/DTD/svg10.dtd">
<svg version="1.0" xmlns="http://www.w3.org/2000/svg"
 width="1680.000000pt" height="1680.000000pt" viewBox="0 0 1680.000000 1680.000000"
 preserveAspectRatio="xMidYMid meet">
<metadata>
Created by potrace 1.14, written by Peter Selinger 2001-2017
</metadata>
<g transform="translate(0.000000,1680.000000) scale(0.100000,-0.100000)"
fill="#000000" stroke="none">
<path d="M5783 16065 c-29 -7 -53 -9 -53 -6 0 3 -4 2 -8 -4 -4 -5 -29 -21 -55
-34 -119 -60 -177 -199 -140 -336 8 -27 16 -58 18 -68 2 -11 24 -53 49 -95 47
-81 117 -164 201 -241 185 -171 335 -337 335 -371 0 -6 4 -10 8 -10 10 0 76
-132 96 -192 34 -101 48 -235 31 -308 -3 -14 -8 -36 -11 -50 -12 -64 -81 -176
-152 -247 -40 -40 -77 -73 -82 -73 -5 0 -16 -7 -24 -16 -65 -64 -363 -173
-546 -199 -25 -3 -58 -8 -75 -10 -65 -9 -169 -15 -360 -20 -238 -6 -385 -13
-440 -21 -22 -3 -53 -7 -70 -9 -111 -13 -217 -47 -323 -101 -186 -95 -306
-229 -425 -472 -38 -76 -90 -206 -102 -252 -2 -8 -11 -37 -19 -65 -9 -27 -19
-66 -22 -85 -3 -19 -9 -51 -13 -70 -11 -52 -5 -159 13 -208 17 -46 35 -73 96
-138 93 -100 94 -179 3 -354 -38 -72 -195 -319 -228 -357 -5 -6 -26 -34 -45
-62 -19 -28 -66 -93 -103 -144 -38 -50 -76 -102 -85 -115 -10 -13 -56 -76
-104 -140 -48 -64 -97 -130 -108 -147 -27 -38 -98 -137 -108 -150 -98 -128
-224 -375 -248 -486 -3 -13 -7 -35 -10 -49 -8 -34 -8 -127 -1 -170 12 -70 70
-180 95 -180 6 0 12 -4 12 -10 0 -5 20 -10 43 -10 84 0 193 105 331 320 16 25
37 57 48 72 10 15 18 30 18 34 0 4 11 22 25 40 14 18 25 35 25 38 0 4 74 136
110 196 5 8 26 44 46 80 82 147 211 360 234 387 5 7 10 15 10 18 0 6 40 66 51
75 3 3 21 27 40 55 18 27 39 55 44 62 6 7 15 18 20 25 42 54 134 168 155 192
55 65 338 344 385 381 28 22 55 45 60 51 6 7 33 29 60 49 28 21 52 40 55 44 3
3 34 26 70 50 36 25 67 48 68 53 2 4 8 8 14 8 5 0 24 11 41 24 67 49 288 176
427 244 132 64 383 172 401 172 4 0 20 5 36 12 15 6 30 12 33 13 3 0 57 17
120 37 63 20 169 50 235 67 118 29 140 34 200 46 17 3 53 10 81 16 83 16 215
36 299 45 28 2 61 6 75 9 85 13 263 20 525 19 268 -1 351 -4 475 -19 19 -2 64
-7 100 -10 36 -3 72 -8 80 -10 8 -2 35 -7 60 -10 62 -8 101 -14 130 -20 14 -3
34 -7 45 -9 116 -24 188 -40 228 -51 26 -8 47 -12 47 -9 0 3 8 0 18 -5 11 -6
30 -12 43 -15 13 -2 76 -21 139 -42 63 -21 117 -39 120 -39 5 -2 8 -3 105 -42
101 -41 202 -90 278 -135 69 -40 82 -49 112 -75 7 -7 18 -13 22 -13 20 0 161
-149 190 -201 36 -62 47 -106 45 -167 -2 -40 -31 -114 -51 -126 -16 -11 -107
-17 -306 -22 -110 -2 -207 -5 -215 -5 -20 -1 -148 -17 -185 -24 -213 -39 -371
-152 -417 -299 -32 -103 -29 -255 8 -386 50 -176 172 -311 369 -412 68 -35
169 -76 214 -88 20 -5 79 -20 131 -33 52 -14 115 -28 140 -32 25 -4 54 -9 65
-12 11 -2 35 -6 54 -9 19 -2 46 -6 60 -9 14 -2 44 -6 66 -9 22 -3 58 -8 80
-11 22 -3 63 -7 90 -10 61 -5 118 -14 124 -21 2 -2 -13 -5 -35 -6 -36 -1 -52
-3 -64 -8 -8 -3 -43 -10 -75 -14 -16 -3 -50 -9 -75 -15 -25 -5 -58 -12 -74
-15 -16 -3 -76 -17 -133 -31 -58 -15 -112 -28 -121 -30 -29 -6 -253 -73 -336
-99 -127 -41 -391 -141 -501 -191 -212 -96 -446 -218 -613 -321 -35 -21 -79
-48 -97 -59 -19 -12 -42 -28 -53 -38 -10 -9 -24 -17 -30 -17 -7 0 -12 -4 -12
-10 0 -5 -5 -10 -11 -10 -6 0 -16 -6 -24 -12 -7 -7 -39 -31 -70 -53 -32 -22
-84 -61 -117 -88 -34 -26 -61 -47 -62 -47 -5 0 -214 72 -231 79 -21 9 -65 23
-245 77 -256 77 -312 92 -360 100 -14 3 -33 7 -42 10 -31 9 -140 31 -205 40
-79 12 -226 10 -258 -4 -32 -14 -63 -49 -68 -79 -2 -10 -9 -36 -15 -58 -10
-36 -15 -73 -27 -200 -5 -51 -5 -481 0 -600 5 -127 22 -410 25 -410 1 0 3 -31
5 -70 3 -38 7 -90 9 -115 19 -202 19 -221 -2 -243 -26 -29 -97 -140 -95 -149
1 -3 -4 -12 -12 -18 -8 -7 -15 -20 -15 -30 0 -10 -7 -23 -15 -30 -9 -7 -13
-15 -10 -18 3 -3 -1 -15 -8 -26 -10 -17 -33 -79 -42 -116 -29 -122 -37 -175
-39 -289 -2 -94 1 -127 30 -273 14 -69 14 -79 -1 -107 -8 -17 -15 -34 -14 -37
0 -4 -3 -10 -8 -13 -9 -6 -163 -314 -246 -491 -86 -186 -101 -220 -159 -360
-33 -80 -63 -154 -68 -165 -4 -11 -18 -49 -30 -85 -12 -36 -25 -72 -28 -80 -7
-21 -9 -27 -32 -112 -32 -122 -29 -203 9 -238 19 -18 112 -64 154 -75 4 -2 8
-3 10 -5 3 -2 20 -6 147 -33 129 -27 279 -50 415 -63 28 -2 73 -7 100 -10 28
-3 75 -7 105 -9 30 -2 102 -6 160 -10 58 -4 135 -8 171 -9 l66 -1 57 -100 c68
-120 280 -443 306 -465 3 -3 48 -59 100 -125 52 -65 106 -131 120 -145 14 -15
47 -51 74 -81 156 -175 349 -358 566 -538 63 -52 117 -99 118 -103 2 -4 8 -8
13 -8 6 0 40 -24 77 -53 79 -62 66 -53 273 -192 167 -112 320 -207 352 -218 9
-4 17 -11 17 -17 0 -5 6 -10 14 -10 8 0 47 -19 88 -43 40 -23 108 -60 150 -82
43 -22 74 -42 70 -46 -14 -14 -190 -82 -332 -129 -140 -47 -315 -95 -417 -116
-154 -30 -282 -51 -368 -59 -28 -3 -62 -8 -75 -10 -136 -26 -785 -26 -960 0
-24 4 -125 16 -165 19 -11 2 -33 5 -50 9 -16 3 -50 9 -75 12 -25 3 -56 7 -70
10 -14 3 -41 8 -60 11 -19 3 -42 7 -50 9 -8 2 -31 7 -50 10 -30 5 -106 22
-190 42 -14 3 -32 7 -40 9 -9 2 -58 15 -110 29 -52 14 -105 28 -118 31 -13 2
-109 34 -215 69 -106 36 -196 66 -202 68 -42 13 -300 115 -370 146 -22 10 -60
27 -85 39 -25 11 -84 38 -131 61 -48 23 -91 41 -97 41 -5 0 -15 7 -22 15 -6 8
-15 14 -18 13 -4 -1 -23 6 -42 16 -132 70 -229 121 -259 139 -20 11 -65 37
-101 57 -36 20 -94 54 -130 76 -36 21 -73 43 -82 49 -28 16 -170 107 -328 211
-288 188 -417 235 -471 173 -26 -30 -33 -61 -26 -114 6 -39 40 -124 60 -150 4
-5 29 -44 55 -85 26 -42 64 -99 85 -128 20 -29 37 -54 37 -57 0 -3 7 -13 15
-22 21 -25 138 -182 150 -201 6 -8 20 -27 32 -41 13 -14 50 -60 84 -101 214
-260 473 -526 755 -775 12 -11 42 -36 65 -55 24 -19 62 -51 85 -70 23 -19 50
-42 60 -50 23 -18 105 -82 119 -92 6 -4 24 -18 40 -32 17 -13 50 -38 75 -55
25 -17 72 -51 105 -74 33 -23 67 -46 77 -52 9 -5 37 -25 63 -42 25 -18 50 -33
56 -33 5 0 9 -4 9 -9 0 -5 8 -11 18 -15 9 -3 31 -15 47 -26 17 -11 46 -29 65
-40 19 -11 44 -26 55 -33 78 -49 183 -107 365 -202 96 -50 318 -153 420 -195
30 -12 73 -30 95 -40 22 -10 94 -36 160 -60 66 -23 129 -46 140 -51 11 -5 40
-15 65 -23 152 -48 210 -66 250 -77 25 -7 50 -14 55 -15 58 -16 337 -86 360
-90 17 -2 37 -7 45 -9 8 -2 29 -7 45 -10 17 -2 41 -7 55 -10 14 -3 36 -7 50
-10 14 -3 34 -7 45 -9 11 -2 40 -7 65 -11 62 -9 91 -14 115 -19 11 -2 47 -7
80 -11 32 -4 67 -8 76 -10 10 -2 45 -6 78 -10 33 -3 68 -7 78 -9 10 -2 63 -7
118 -11 55 -4 116 -9 135 -11 277 -27 889 -21 1235 11 28 3 77 7 110 10 57 6
90 9 180 20 65 7 139 17 156 20 9 2 40 6 70 10 30 3 77 10 104 15 28 6 66 12
85 14 19 3 46 7 60 10 13 3 40 8 60 11 20 3 47 8 60 11 14 3 34 7 45 9 67 11
100 17 116 21 21 4 20 4 159 34 52 11 109 24 125 29 17 5 73 19 125 31 52 12
104 26 115 31 11 5 32 11 47 13 14 2 35 9 45 14 10 6 21 10 26 10 16 1 72 15
82 20 6 4 15 7 20 8 33 6 339 116 349 125 6 5 17 9 25 9 9 1 34 9 56 20 22 11
43 19 47 20 6 0 88 36 183 80 100 46 235 113 290 143 33 19 87 48 120 67 33
18 72 41 87 51 14 11 31 19 37 19 6 0 11 5 11 10 0 6 4 10 10 10 8 0 122 71
155 97 6 4 30 21 55 38 25 16 57 39 71 50 15 11 39 29 54 40 31 22 116 88 154
120 44 36 196 168 207 179 88 92 132 125 173 130 24 3 91 17 150 31 58 14 115
26 126 28 11 1 25 5 30 8 6 4 35 12 65 19 30 6 86 21 124 32 38 11 76 21 85
23 31 6 317 103 396 135 44 17 85 33 90 34 72 20 599 272 640 306 7 6 34 22
61 36 27 14 68 39 92 55 24 16 45 29 48 29 3 0 20 11 38 25 18 14 38 25 43 25
6 0 13 7 17 15 3 8 10 15 16 15 15 0 274 192 356 265 7 6 36 30 65 55 61 52
270 258 344 340 28 31 79 93 115 139 36 46 72 91 80 100 8 10 40 53 69 97 30
43 59 80 63 82 4 2 8 8 8 14 0 5 24 49 53 96 30 48 77 134 106 192 29 58 57
112 62 120 5 8 12 22 15 30 3 8 10 24 14 35 51 117 143 375 134 375 -2 0 2 12
9 28 12 23 23 65 28 107 1 6 5 20 10 33 5 12 11 33 13 45 62 326 69 405 70
697 0 189 -7 332 -19 395 -2 11 -7 42 -10 68 -3 26 -10 71 -16 100 -5 29 -12
68 -15 87 -3 19 -8 44 -11 55 -4 11 -8 25 -9 30 -1 6 -9 39 -17 75 -8 36 -27
103 -41 150 -15 47 -28 92 -30 100 -4 15 -61 173 -73 200 -3 8 -7 17 -8 20 -1
3 -9 22 -18 44 -9 21 -17 40 -17 43 0 2 -22 51 -50 109 -27 58 -50 109 -50
114 0 4 -3 10 -7 12 -5 2 -21 30 -38 63 -16 33 -49 93 -72 133 -24 40 -43 75
-43 78 0 3 -5 10 -10 17 -6 7 -43 62 -82 122 -67 104 -258 365 -288 395 -3 3
-45 52 -94 110 -92 108 -408 427 -484 490 -24 19 -60 50 -80 69 -20 18 -54 47
-76 65 -21 17 -65 52 -96 78 -32 27 -61 48 -64 48 -4 0 -17 9 -29 21 -58 54
-354 256 -562 382 -66 40 -120 77 -121 82 0 6 -9 37 -19 70 -11 33 -20 62 -20
65 -1 3 -4 12 -8 20 -3 8 -17 51 -32 95 -47 139 -103 297 -130 370 -15 39 -31
84 -37 100 -5 17 -19 49 -29 72 -10 24 -19 47 -19 53 0 6 -4 18 -9 28 -12 23
-25 54 -57 137 -39 103 -194 465 -247 578 -25 53 -43 97 -40 97 3 0 -1 8 -9
18 -8 9 -25 42 -38 72 -29 70 -306 617 -348 688 -18 29 -32 55 -32 56 0 2 -31
59 -70 127 -38 67 -70 126 -70 131 0 4 -4 8 -10 8 -5 0 -10 4 -10 10 0 5 -36
69 -80 141 -44 73 -80 133 -80 135 0 4 -148 228 -159 241 -6 7 -11 17 -11 22
0 5 -6 16 -13 23 -7 7 -33 42 -57 78 -72 108 -164 235 -172 238 -4 2 -8 8 -8
13 0 18 -168 224 -227 279 -89 83 -136 120 -173 137 -8 4 -17 9 -20 13 -9 12
-115 53 -166 65 -55 13 -124 13 -171 0 -15 -5 -33 -9 -40 -11 -18 -3 -84 -55
-115 -89 -33 -36 -68 -104 -102 -200 -54 -152 -77 -210 -91 -232 -9 -13 -13
-23 -11 -23 5 0 -59 -114 -78 -139 -6 -7 -37 -40 -68 -73 -123 -127 -276 -149
-464 -67 -72 32 -203 121 -250 171 -132 141 -234 339 -299 583 -16 59 -83 326
-90 355 -2 8 -13 51 -24 95 -12 44 -24 88 -26 99 -11 47 -49 162 -57 170 -4 6
-8 17 -8 25 0 29 -107 235 -155 301 -65 88 -98 122 -180 184 -61 46 -168 105
-199 110 -6 1 -15 4 -21 8 -17 10 -107 21 -160 19 -81 -2 -151 -32 -198 -86
-42 -48 -95 -197 -142 -400 -1 -5 -7 -23 -13 -38 -7 -16 -12 -34 -12 -40 0
-19 -56 -133 -89 -180 -52 -76 -139 -151 -222 -190 -93 -43 -263 -56 -369 -27
-25 7 -46 12 -47 11 -3 -1 -82 33 -133 57 -34 16 -125 69 -145 84 -5 5 -44 34
-85 66 -109 85 -256 233 -370 372 -25 30 -47 57 -50 60 -3 3 -38 50 -78 105
-39 55 -81 111 -92 125 -11 14 -20 30 -20 37 0 6 -3 13 -7 15 -5 2 -26 30 -48
63 -171 255 -412 504 -630 649 -137 92 -332 178 -455 201 -68 12 -216 13 -267
0z"/>
<path d="M2228 13265 c-1 -2 -28 -6 -58 -10 -202 -26 -448 -148 -603 -300
-231 -228 -281 -488 -122 -638 42 -40 153 -104 194 -112 10 -2 34 -7 52 -12
89 -24 268 -13 379 23 367 121 758 517 805 819 12 73 12 81 4 103 -7 18 -37
39 -69 47 -16 4 -88 28 -105 35 -21 8 -95 24 -185 39 -52 9 -284 14 -292 6z"/>
<path d="M7135 12124 c-96 -23 -105 -26 -105 -33 0 -4 -8 -7 -18 -8 -25 -2
-139 -68 -181 -105 -20 -18 -48 -48 -63 -67 -15 -20 -31 -40 -36 -46 -4 -5
-11 -17 -15 -25 -4 -8 -17 -31 -28 -50 -42 -68 -71 -170 -66 -230 6 -68 8 -78
30 -111 78 -117 331 -146 594 -68 37 12 74 21 81 22 6 0 12 4 12 9 0 4 7 8 16
8 29 0 190 91 242 136 67 59 105 137 105 220 2 143 -122 283 -303 344 -53 18
-196 20 -265 4z"/>
<path d="M4663 11368 c-55 -47 -293 -288 -323 -326 -14 -18 -42 -52 -63 -75
-20 -23 -49 -60 -64 -82 -16 -22 -34 -44 -40 -48 -7 -4 -13 -13 -13 -18 0 -6
-7 -17 -15 -25 -24 -24 -145 -210 -145 -222 0 -7 -4 -12 -10 -12 -5 0 -10 -6
-10 -14 0 -8 -3 -16 -7 -18 -9 -3 -18 -21 -98 -175 -30 -57 -51 -103 -48 -103
3 0 1 -6 -5 -13 -11 -13 -94 -222 -107 -272 -5 -16 -9 -33 -10 -37 -2 -5 -3
-9 -5 -10 -1 -2 -3 -10 -5 -18 -2 -8 -6 -24 -9 -35 -10 -38 -28 -110 -32 -130
-2 -11 -6 -31 -9 -45 -10 -49 -17 -94 -30 -195 -6 -50 -6 -247 0 -295 24 -184
99 -316 211 -370 47 -23 152 -28 219 -10 22 6 45 12 50 13 81 22 203 137 247
236 36 77 61 154 77 231 20 98 21 104 27 150 3 25 8 56 9 70 10 71 23 252 30
425 19 496 28 635 50 805 4 32 6 49 19 135 3 17 8 41 11 55 3 14 8 39 11 55
16 94 78 291 114 368 10 20 16 37 14 37 -2 0 -20 -15 -41 -32z"/>
<path d="M1750 10463 c-41 -13 -82 -30 -90 -37 -8 -7 -32 -21 -53 -31 -99 -51
-340 -261 -419 -366 -195 -258 -110 -508 177 -523 75 -4 218 27 251 55 8 6 14
9 14 6 0 -9 74 31 146 78 83 55 221 196 279 285 67 103 98 195 97 290 -1 86
-16 134 -58 186 -68 85 -197 106 -344 57z"/>
<path d="M2539 9104 c-2 -45 -19 -166 -25 -175 -2 -4 -6 -26 -9 -49 -3 -24 -8
-47 -11 -51 -3 -5 -7 -21 -9 -36 -5 -32 -33 -141 -42 -163 -3 -8 -7 -17 -8
-20 0 -3 -9 -30 -20 -60 -11 -30 -20 -57 -20 -60 -10 -37 -120 -269 -134 -280
-3 -3 -15 -23 -26 -44 -11 -22 -25 -44 -30 -50 -6 -6 -28 -36 -50 -66 -51 -71
-74 -97 -165 -189 -72 -73 -94 -92 -189 -171 -24 -19 -52 -43 -62 -52 -10 -10
-21 -18 -24 -18 -3 0 -15 -9 -27 -19 -13 -11 -34 -29 -48 -41 -14 -12 -41 -34
-60 -48 -67 -52 -197 -188 -238 -248 -55 -83 -84 -170 -90 -274 -5 -106 9
-176 54 -270 41 -86 124 -173 199 -209 28 -13 61 -29 74 -35 13 -6 73 -11 135
-11 91 0 123 5 176 24 221 79 420 253 528 461 50 96 112 266 137 378 23 102
44 225 39 233 -3 5 -2 9 3 9 4 0 9 12 9 28 1 15 4 52 7 82 29 253 24 775 -8
1025 -11 83 -21 171 -31 265 -5 50 -23 143 -29 148 -3 3 -5 -3 -6 -14z"/>
<path d="M400 7772 c-35 -5 -140 -53 -169 -77 -106 -89 -162 -178 -211 -336
-21 -68 -19 -154 4 -203 19 -39 91 -106 116 -106 9 0 20 -4 25 -9 13 -12 78
-23 145 -24 237 -4 434 132 478 330 25 112 -7 249 -75 324 -34 37 -115 86
-155 95 -31 7 -127 10 -158 6z"/>
<path d="M2643 4969 c-47 -14 -117 -85 -152 -155 -106 -209 -47 -502 116 -579
66 -32 148 -19 209 32 22 19 76 88 75 97 0 3 1 11 4 18 19 58 24 106 20 188
-12 284 -122 444 -272 399z"/>
</g>
</svg>
